<?xml version="1.0" encoding="UTF-8"?>
<svg width="37px" height="31px" viewBox="0 0 37 31" version="1.1" xmlns="http://www.w3.org/2000/svg" xmlns:xlink="http://www.w3.org/1999/xlink">
    <!-- Generator: Sketch 41.2 (35397) - http://www.bohemiancoding.com/sketch -->
    <title>Fill 1</title>
    <desc>Created with Sketch.</desc>
    <defs></defs>
    <g id="Page-2" stroke="none" stroke-width="1" fill="none" fill-rule="evenodd">
        <g id="Dashboard---all-emp" transform="translate(-1371.000000, -35.000000)" fill="#FFFFFF">
            <g id="NAVIGATION" transform="translate(-8.000000, -2.000000)">
                <path d="M1387.67866,61.5957373 C1387.67866,66.8354407 1387.63441,60.1172288 1387.70218,65.3561356 C1387.7253,67.1576695 1387.0532,67.9176356 1385.23902,67.7985424 C1383.85098,67.7077288 1382.45019,67.7340169 1381.05896,67.7917712 C1379.65577,67.850322 1378.99643,67.3440763 1379.00001,65.8484407 C1379.03031,52.7820424 1379.01875,51.2756525 1379.02712,38.2096525 C1379.02712,37.9603136 1379.12,37.7109746 1379.24677,37.0748814 C1380.00098,37.6667627 1380.61966,38.0634746 1381.13151,38.5681271 C1385.99802,43.3661102 1390.89882,48.5301356 1395.66847,53.4233136 C1397.10315,54.8950508 1397.97536,54.7775508 1399.34665,53.3711356 C1404.01943,48.5775339 1408.8118,43.5015339 1413.56391,38.7856017 C1414.07296,38.2805508 1414.61909,37.8129407 1415.50525,37 C1415.61089,37.9619068 1415.73247,38.5533898 1415.73287,39.1452712 C1415.74404,51.7472458 1415.71892,52.7892119 1415.76676,65.3911864 C1415.77353,67.1421356 1415.29996,68.0219915 1413.39449,67.8021271 C1412.34648,67.6814407 1411.27296,67.7830085 1410.21061,67.7802203 C1407.55531,67.7734492 1407.46602,67.6977712 1407.45964,64.9403051 C1407.44688,59.5675678 1407.46801,66.1539407 1407.4405,60.7816017 C1407.43652,59.9849915 1407.24278,59.189178 1407.06499,57.8528644 C1405.74512,59.0836271 1404.83185,59.9005508 1403.95765,60.7577034 C1402.25429,62.4277966 1400.50907,64.0624407 1398.90497,65.8245424 C1397.86095,66.9712627 1397.11989,67.0449492 1396.02325,65.8759237 C1393.98225,63.7003814 1391.8093,61.6487119 1389.68259,59.5540254 C1389.22575,59.104339 1388.73344,58.6908983 1388.25747,58.2607288 C1388.06454,58.3383983 1387.8716,58.4164661 1387.67866,58.4941356 L1387.67866,61.5957373 Z" id="Fill-1"></path>
            </g>
        </g>
    </g>
</svg>