<?xml version="1.0" encoding="UTF-8"?>
<svg width="40px" height="35px" viewBox="0 0 40 35" version="1.1" xmlns="http://www.w3.org/2000/svg" xmlns:xlink="http://www.w3.org/1999/xlink">
    <!-- Generator: Sketch 42 (36781) - http://www.bohemiancoding.com/sketch -->
    <title>visibility-off</title>
    <desc>Created with Sketch.</desc>
    <defs></defs>
    <g id="03012017" stroke="none" stroke-width="1" fill="none" fill-rule="evenodd">
        <g id="Comparison---blank" transform="translate(-692.000000, -204.000000)" fill="#8386ED">
            <g id="visibility-off" transform="translate(692.000000, 204.000000)">
                <path d="M20.0913242,7.30593607 C25.2054795,7.30593607 29.2237443,11.3242009 29.2237443,16.4383562 C29.2237443,17.5342466 29.0410959,18.8127854 28.4931507,19.7260274 L33.7899543,25.0228311 C36.5296804,22.6484018 38.7214612,19.7260274 40,16.4383562 C36.8949772,8.40182648 29.0410959,2.73972603 19.9086758,2.73972603 C17.3515982,2.73972603 14.9771689,3.28767123 12.6027397,4.01826484 L16.6210046,8.03652968 C17.716895,7.48858447 18.9954338,7.30593607 20.0913242,7.30593607 L20.0913242,7.30593607 Z M1.82648402,2.37442922 L6.02739726,6.57534247 L6.75799087,7.30593607 C3.65296804,9.6803653 1.27853881,12.7853881 0,16.4383562 C3.10502283,24.4748858 10.9589041,30.1369863 20.0913242,30.1369863 C22.8310502,30.1369863 25.5707763,29.5890411 28.1278539,28.6757991 L28.8584475,29.4063927 L34.1552511,34.7031963 L36.5296804,32.3287671 L4.20091324,0 L1.82648402,2.37442922 L1.82648402,2.37442922 Z M11.8721461,12.4200913 L14.6118721,15.1598174 L14.6118721,16.4383562 C14.6118721,19.543379 16.9863014,21.9178082 20.0913242,21.9178082 C20.456621,21.9178082 20.8219178,21.9178082 21.369863,21.7351598 L24.109589,24.4748858 C22.8310502,25.2054795 21.5525114,25.5707763 20.0913242,25.5707763 C14.9771689,25.5707763 10.9589041,21.5525114 10.9589041,16.4383562 C10.9589041,14.9771689 11.3242009,13.6986301 11.8721461,12.4200913 L11.8721461,12.4200913 Z M19.7260274,10.9589041 L25.3881279,16.6210046 L25.3881279,16.2557078 C25.3881279,13.1506849 23.0136986,10.7762557 19.9086758,10.7762557 C19.9086758,10.9589041 19.9086758,10.9589041 19.7260274,10.9589041 L19.7260274,10.9589041 Z" id="Shape"></path>
            </g>
        </g>
    </g>
</svg>